<?xml version="1.0" encoding="UTF-8"?>
<svg version="1.1" xmlns="http://www.w3.org/2000/svg" width="1024" height="1024">
<path d="M0 0 C337.92 0 675.84 0 1024 0 C1024 337.92 1024 675.84 1024 1024 C686.08 1024 348.16 1024 0 1024 C0 686.08 0 348.16 0 0 Z " fill="#01122A" transform="translate(0,0)"/>
<path d="M0 0 C0.82903172 -0.00581376 1.65806345 -0.01162753 2.51221734 -0.01761746 C5.30860931 -0.03229227 8.10413379 -0.01829755 10.90052032 -0.00457001 C12.91815374 -0.00917596 14.93578381 -0.01552682 16.95340681 -0.02347898 C22.51210723 -0.04023731 28.07053434 -0.03189642 33.62923598 -0.01953411 C39.61841073 -0.01051249 45.60753729 -0.02443896 51.59670258 -0.0354538 C62.65611172 -0.05224365 73.71544534 -0.05074476 84.77485503 -0.03980792 C94.99086072 -0.02975447 105.20683432 -0.02711479 115.42284393 -0.0318985 C116.09991205 -0.03220404 116.77698017 -0.03250958 117.4745655 -0.03282438 C120.22285253 -0.03406969 122.97113955 -0.03534328 125.71942654 -0.03666343 C151.51214915 -0.04890554 177.30481599 -0.03779592 203.09753 -0.01627585 C226.02395542 0.00270727 248.95029197 0.00100878 271.87671661 -0.01811981 C297.62159162 -0.03952806 323.36641732 -0.04803742 349.11129999 -0.03567076 C351.85464381 -0.03438784 354.59798764 -0.03313649 357.34133148 -0.0318985 C358.01683637 -0.03158219 358.69234127 -0.03126588 359.388316 -0.03093999 C369.59909825 -0.02638584 379.80984493 -0.0317191 390.02062225 -0.04181671 C401.62816712 -0.05323822 413.2356274 -0.05004147 424.84316289 -0.02869374 C430.76967668 -0.01815469 436.69600975 -0.01411004 442.62252235 -0.02729034 C448.04197095 -0.03916101 453.46107036 -0.03273998 458.88048702 -0.01138014 C460.84677472 -0.00689139 462.81309158 -0.00923082 464.77936071 -0.01888329 C467.44139181 -0.03095442 470.10220896 -0.01866761 472.76417542 0 C473.53704889 -0.00936466 474.30992237 -0.01872933 475.10621625 -0.02837777 C478.58353986 0.02074328 480.5310394 0.24247362 483.35817152 2.3435325 C485.49733071 5.37534267 485.38265405 7.53566897 485.38329315 11.22823334 C485.38882755 11.90332048 485.39436195 12.57840762 485.40006405 13.27395195 C485.41367309 15.53512395 485.39870141 17.79519258 485.38379669 20.05634308 C485.38757977 21.6776654 485.39307972 23.29898449 485.40016937 24.92029572 C485.41414171 29.32314964 485.40294235 33.72561356 485.38645816 38.12844586 C485.37261955 42.73282769 485.37906629 47.33718661 485.38259125 51.94158173 C485.38529404 59.67309616 485.3718109 67.40445541 485.34864044 75.13593292 C485.32202085 84.08034871 485.32028632 93.02450516 485.33202881 101.96894699 C485.3427992 110.56748375 485.33662595 119.16592651 485.32247353 127.7644558 C485.31670824 131.4266958 485.31680063 135.08886714 485.32153893 138.75110817 C485.32630317 143.06117743 485.3162302 147.37096182 485.29458427 151.68097687 C485.289009 153.26485419 485.28855789 154.84875886 485.29353714 156.43263817 C485.29947146 158.59057045 485.287022 160.74762626 485.26976776 162.90547943 C485.26612292 164.71868856 485.26612292 164.71868856 485.26240444 166.56852818 C484.88208771 169.50336456 484.88208771 169.50336456 483.5817194 171.39047909 C480.63808411 173.3179137 477.26082434 172.9501249 473.85474396 172.93695831 C473.06941788 172.94220016 472.2840918 172.94744202 471.47496796 172.95284271 C469.8148695 172.95926278 468.15472556 172.95792606 466.49463654 172.94940948 C463.95694496 172.94090597 461.42150956 172.96964691 458.88404083 173.00141144 C457.27010921 173.00302376 455.65617362 173.00244533 454.04224396 172.99945831 C453.28484421 173.01069229 452.52744446 173.02192627 451.7470932 173.03350067 C448.31717715 172.98823112 446.27304843 172.78854057 443.46753693 170.74213409 C441.88338222 168.50519252 441.0635189 166.82049573 440.35474396 164.18695831 C440.00693878 162.93145172 440.00693878 162.93145172 439.65210724 161.65058136 C439.41862579 160.75637482 439.18514435 159.86216827 438.94458771 158.94086456 C438.68790314 158.00991974 438.43121857 157.07897491 438.16675568 156.11981964 C436.92524635 151.58235288 435.75686499 147.03271645 434.66724396 142.45648956 C431.01386446 127.28896288 425.54349088 114.15701714 414.88208771 102.50336456 C414.01390411 101.49789581 414.01390411 101.49789581 413.12818146 100.47211456 C392.60418704 78.13066059 358.90258926 70.51941228 329.88208771 68.50336456 C321.47014889 68.15923207 313.04938753 68.14071742 304.63149261 68.10605621 C300.82272239 68.08999082 297.01414622 68.06446185 293.20545197 68.03583527 C284.07689525 67.97309411 274.94823216 67.92668305 265.81958771 67.87836456 C245.38021271 67.75461456 224.94083771 67.63086456 203.88208771 67.50336456 C203.88208771 130.53336456 203.88208771 193.56336456 203.88208771 258.50336456 C265.00363352 263.80386302 265.00363352 263.80386302 322.63208771 240.91742706 C335.37817357 227.2419391 339.4167625 210.35963534 342.88208771 192.50336456 C348.11482102 192.45400632 353.34741947 192.41766507 358.5803299 192.39350128 C360.36127838 192.38343025 362.14221028 192.36977271 363.92310333 192.35248566 C366.47978554 192.32828544 369.03624956 192.31689272 371.59302521 192.30805206 C372.7915361 192.29256821 372.7915361 192.29256821 374.01425934 192.27677155 C375.9716599 192.2763723 377.92851847 192.38095388 379.88208771 192.50336456 C381.88208771 194.50336456 381.88208771 194.50336456 382.12818336 196.56107521 C382.12633978 197.41465551 382.12449619 198.26823582 382.12259674 199.14768219 C382.12672073 200.61586899 382.12672073 200.61586899 382.13092804 202.11371613 C382.12373749 203.19121124 382.11654694 204.26870636 382.10913849 205.37885284 C382.10943054 206.51055908 382.1097226 207.64226532 382.1100235 208.80826569 C382.10862583 212.56347977 382.09304397 216.31849748 382.07740021 220.07367706 C382.07367163 222.67156618 382.07082393 225.2694567 382.06882477 227.86734772 C382.0619586 234.01553046 382.04618233 240.16363169 382.02612579 246.31178367 C382.00378907 253.31047771 381.99277898 260.3091751 381.98273492 267.3078959 C381.96181667 281.70642358 381.9266268 296.10489156 381.88208771 310.50336456 C378.31415742 312.01503727 375.11484486 312.83818511 371.2624588 313.33808136 C352.6066932 315.80765443 332.95198975 322.31201021 317.10913849 332.66156769 C314.26688467 334.4740194 312.38656221 335.51556959 308.97583771 335.43305206 C305.07313611 334.26027052 301.2246698 332.98415904 297.38208771 331.62836456 C284.3086855 327.14448965 271.22149883 324.4761982 257.37818146 324.22211456 C256.17851494 324.19450043 256.17851494 324.19450043 254.95461273 324.16632843 C252.40967198 324.10816929 249.86466226 324.05530981 247.31958771 324.00336456 C236.44882792 323.7742811 225.58872582 323.47386969 214.72608185 322.98578644 C213.67644508 322.93936005 212.62680832 322.89293365 211.54536438 322.8451004 C208.99090166 322.73199907 206.4364786 322.6180748 203.88208771 322.50336456 C203.94278222 349.53861665 204.02039432 376.57377522 204.11780262 403.60892105 C204.16264868 416.16357073 204.20208882 428.71819275 204.22852325 441.27289581 C204.25159431 452.22354142 204.28509302 463.17409868 204.33078927 474.12467408 C204.35459927 479.91566897 204.37340776 485.70657702 204.37970161 491.49761963 C204.38580824 496.96415051 204.40600599 502.43045954 204.43636322 507.89690781 C204.44505502 509.8880623 204.44888477 511.87924589 204.44709587 513.87041855 C204.43332224 536.30412778 205.98491822 561.80473993 219.88208771 580.50336456 C220.4428299 581.26777863 221.00357208 582.03219269 221.58130646 582.81977081 C227.93151528 590.6876396 236.47067965 595.46857329 245.50708771 599.75336456 C250.42101696 602.30132788 252.157631 605.83400561 254.69458771 610.62836456 C257.19405755 615.32586065 259.92546315 619.78892474 262.87818146 624.21430206 C264.13474727 627.07946769 263.81652852 628.56366429 262.88208771 631.50336456 C261.30225374 633.08319853 259.71331282 632.63282528 257.51949501 632.63758564 C256.57187046 632.64204348 255.62424591 632.64650133 254.64790547 632.65109426 C253.06783737 632.65081771 253.06783737 632.65081771 251.45584869 632.65053558 C250.34638472 632.65421227 249.23692075 632.65788896 248.09383667 632.66167706 C244.34502646 632.67276395 240.59624392 632.67656616 236.84741974 632.68036652 C234.1723692 632.6866273 231.49732169 632.69326046 228.82227325 632.70027924 C220.77218463 632.72006594 212.7220947 632.73011243 204.67198783 632.73900703 C200.8848311 632.74338613 197.09767578 632.7487539 193.31052017 632.7539959 C180.72775119 632.77101003 168.14498309 632.78550556 155.56220436 632.79274464 C152.29497145 632.79465466 149.02773856 632.79657497 145.76050568 632.79853058 C144.94841089 632.79901432 144.13631611 632.79949806 143.29961239 632.79999646 C130.13581134 632.80830181 116.97210102 632.83364639 103.80833961 632.86611126 C90.30577345 632.89914132 76.80325345 632.9171897 63.30064666 632.92038888 C55.71437513 632.9225577 48.1282359 632.93136044 40.54200363 632.95685005 C34.08292348 632.9785018 27.62400776 632.98663489 21.16489543 632.97688327 C17.86723501 632.97232239 14.56998698 632.97648616 11.27235794 632.99364471 C7.70204499 633.01118888 4.13260561 633.00434342 0.56229401 632.99111176 C-1.01108193 633.00756562 -1.01108193 633.00756562 -2.61624324 633.02435189 C-3.56908329 633.015771 -4.52192333 633.00719011 -5.50363731 632.99834919 C-6.32822752 632.999326 -7.15281772 633.00030281 -8.00239551 633.00130922 C-10.11791229 632.50336456 -10.11791229 632.50336456 -11.882043 630.62880009 C-13.41372138 627.99463508 -13.50514772 626.2584106 -13.51634979 623.22211456 C-13.52215057 621.71197784 -13.52215057 621.71197784 -13.52806854 620.17133331 C-13.51646698 619.12590363 -13.50486542 618.08047394 -13.49291229 617.00336456 C-13.50451385 615.95793488 -13.51611542 614.91250519 -13.52806854 613.83539581 C-13.52420135 612.828638 -13.52033417 611.82188019 -13.51634979 610.78461456 C-13.512966 609.86744659 -13.50958221 608.95027863 -13.50609589 608.00531769 C-13.03652728 604.97881515 -12.28981348 603.65276988 -10.11791229 601.50336456 C-7.94823456 600.68549347 -7.94823456 600.68549347 -5.43431854 600.22992706 C-4.05095306 599.95741119 -4.05095306 599.95741119 -2.63964081 599.67938995 C-1.6630954 599.49755157 -0.68654999 599.3157132 0.31958771 599.12836456 C8.99588822 597.33290414 16.36510275 595.35913505 23.88208771 590.50336456 C24.52661896 590.099888 25.17115021 589.69641144 25.83521271 589.28070831 C39.40653279 579.28561447 44.87705109 560.02996816 47.30835724 544.2457962 C47.78496733 540.86162351 48.22595666 537.47743942 48.59685445 534.07998884 C48.76800975 532.53387566 48.94883885 530.98872156 49.14892459 529.44608557 C50.15612947 521.01399219 50.02749851 512.56085382 50.0225296 504.08402252 C50.02511653 502.31313024 50.0281306 500.54223854 50.031533 498.77134764 C50.0395676 493.92215128 50.04139059 489.07296975 50.04213047 484.22376752 C50.04398718 478.98704717 50.05153753 473.7503344 50.05826569 468.51361847 C50.07182365 457.07135354 50.07786957 445.62909213 50.08227634 434.18682051 C50.08504267 427.03766144 50.0892807 419.88850371 50.09378052 412.73934555 C50.10596914 392.93154167 50.11626973 373.12373887 50.11965561 353.31593132 C50.11987518 352.04923468 50.12009474 350.78253805 50.12032096 349.47745667 C50.12053924 348.20779738 50.12075752 346.9381381 50.12098241 345.63000429 C50.12142587 343.05735485 50.12187243 340.48470541 50.12232208 337.91205597 C50.12265423 335.99788741 50.12265423 335.99788741 50.12299308 334.04504879 C50.12694066 313.37005916 50.14439529 292.69510478 50.1676816 272.02012877 C50.19141574 250.77550039 50.20385837 229.5308897 50.20502353 208.28624785 C50.20593905 196.36535891 50.21166052 184.44451593 50.22984314 172.52363968 C50.24527185 162.37282436 50.25034818 152.22206922 50.24210504 142.0712444 C50.23820856 136.89661649 50.23907908 131.72210967 50.25316238 126.5474968 C50.26596118 121.80127011 50.26465168 117.05525475 50.25257167 112.3090281 C50.250625 110.60111082 50.25364489 108.89317826 50.26241603 107.18528239 C50.36840685 85.13335408 46.60723643 64.05866341 30.94458771 47.44867706 C20.79160195 37.90978318 7.08298071 34.32058057 -6.51634979 33.08148956 C-7.70486542 32.89070831 -8.89338104 32.69992706 -10.11791229 32.50336456 C-13.29181842 27.74250537 -12.48663294 22.66390731 -12.49291229 17.06586456 C-12.51740448 15.92053253 -12.54189667 14.7752005 -12.56713104 13.59516144 C-12.57099823 12.49365753 -12.57486542 11.39215363 -12.57884979 10.25727081 C-12.58706757 9.24994904 -12.59528534 8.24262726 -12.60375214 7.20478058 C-11.34321657 0.19582277 -6.12884922 -0.07426134 0 0 Z " fill="#FBFBF9" transform="translate(271.11791229248047,187.49663543701172)"/>
<path d="M0 0 C0.81210937 0.1556543 1.62421875 0.31130859 2.4609375 0.47167969 C22.00343317 4.38173972 41.27816153 12.13861894 58 23 C58.65484375 23.42474609 59.3096875 23.84949219 59.984375 24.28710938 C97.2326081 48.73988462 124.66744014 87.19970288 133.78833008 131.04418945 C135.57413132 140.04971813 137.13507161 148.90950767 137.2734375 158.1171875 C137.29222961 159.26633133 137.29222961 159.26633133 137.31140137 160.43869019 C137.54932391 178.50826901 136.94111891 195.47615056 132 213 C131.77006348 213.83354004 131.54012695 214.66708008 131.30322266 215.52587891 C128.14537396 226.65321696 123.5707035 236.88477522 118 247 C117.66129883 247.62471191 117.32259766 248.24942383 116.97363281 248.89306641 C104.50204365 271.65105175 85.71405979 291.83036194 64 306 C63.09217773 306.59433838 63.09217773 306.59433838 62.16601562 307.20068359 C25.04105849 331.15831401 -22.18765257 340.96175218 -65.75 331.875 C-69.53170555 331.01683194 -73.26773058 330.0514025 -77 329 C-78.22638184 328.66307129 -78.22638184 328.66307129 -79.47753906 328.31933594 C-120.66768667 316.67901039 -157.51698109 287.41225875 -178.734375 250.3203125 C-188.83661578 232.01176968 -194.70204678 213.42355015 -199 193 C-199.26941406 191.74832031 -199.53882813 190.49664063 -199.81640625 189.20703125 C-205.61236497 156.57943146 -198.57929769 121.36031276 -184 92 C-183.67773438 91.33919434 -183.35546875 90.67838867 -183.0234375 89.99755859 C-178.25875823 80.30598791 -172.55066846 71.57335876 -166 63 C-164.95585938 61.61748047 -164.95585938 61.61748047 -163.890625 60.20703125 C-137.01983837 26.01244 -96.94652481 3.09895109 -53.74145508 -2.28125 C-35.7832614 -4.28037304 -17.71114444 -3.45228948 0 0 Z " fill="#FAF9F8" transform="translate(709,525)"/>
<path d="M0 0 C4.64434138 3.67263005 8.84725511 7.78907305 13 12 C13.76183594 12.75152344 14.52367187 13.50304687 15.30859375 14.27734375 C30.95975574 30.66072384 38.73180696 54.65678031 38.40209961 77.02685547 C37.43685886 103.78409909 25.86086648 126.96748037 6.53515625 145.34375 C4.10244464 147.38382763 1.62258906 149.21033622 -1 151 C-1.79349854 151.54648193 -1.79349854 151.54648193 -2.60302734 152.10400391 C-12.44364785 158.76770919 -22.572924 162.84977135 -34 166 C-34.93972656 166.26683594 -35.87945313 166.53367187 -36.84765625 166.80859375 C-59.95494645 172.11850988 -85.48139608 166.48938125 -105.375 154.1875 C-127.29176024 140.10492785 -141.80584349 118.36077891 -147.47900391 93.046875 C-152.26185976 69.07951841 -147.09290784 44.47213693 -133.66479492 24.06860352 C-118.5014617 2.08473986 -97.34477122 -10.69851179 -71.62304688 -16.53979492 C-46.79754622 -20.8953486 -20.50773755 -14.36167038 0 0 Z " fill="#FBFAF9" transform="translate(733,616)"/>
<path d="M0 0 C1.53251906 1.31988528 3.05357119 2.65320912 4.5625 4 C5.78646484 5.01126953 5.78646484 5.01126953 7.03515625 6.04296875 C25.53031419 21.73669627 38.20791257 45.78869878 40.5625 70 C41.17565453 83.85778696 41.40273899 97.5757163 37.5625 111 C37.2840625 112.01449219 37.005625 113.02898437 36.71875 114.07421875 C28.36547489 141.6184233 8.39081872 163.25119079 -16.4375 177 C-28.31023137 183.07265979 -43.02760282 187.698654 -56.4375 188 C-57.08203125 188.02964844 -57.7265625 188.05929687 -58.390625 188.08984375 C-88.25122068 189.41345171 -114.48888107 179.05292175 -136.4375 159 C-137.54544922 158.01580078 -137.54544922 158.01580078 -138.67578125 157.01171875 C-156.77676253 140.07152184 -167.83488411 114.05311519 -168.80859375 89.46875 C-169.05900851 75.23870339 -168.4162332 62.40119315 -163.4375 49 C-163.17517578 48.28924316 -162.91285156 47.57848633 -162.64257812 46.84619141 C-157.3826772 33.03106792 -149.65936563 21.68087859 -139.4375 11 C-138.76332031 10.25105469 -138.08914063 9.50210938 -137.39453125 8.73046875 C-102.78000895 -28.35188065 -39.33993161 -30.89232874 0 0 Z M-135.5625 23.25 C-150.68888334 40.87711607 -159.35272295 65.4835707 -157.66943359 88.77880859 C-155.57948943 108.79387385 -148.42497641 127.54794917 -135.4375 143 C-134.84324219 143.73992187 -134.24898437 144.47984375 -133.63671875 145.2421875 C-128.33845951 151.58254742 -122.21636982 156.31787104 -115.4375 161 C-114.67050781 161.54527344 -113.90351562 162.09054687 -113.11328125 162.65234375 C-93.52896958 175.53765876 -68.41419038 178.95484446 -45.625 174.875 C-18.95342447 168.57028117 1.72907792 153.87118305 16.75 130.8125 C29.19680704 109.83640686 32.99539277 85.01092308 27.33325195 61.29321289 C25.67671773 54.91828045 23.46300666 48.9197475 20.5625 43 C19.90121094 41.61941406 19.90121094 41.61941406 19.2265625 40.2109375 C8.67738488 19.52056151 -10.35901366 3.83996302 -31.9375 -4.32421875 C-35.0953147 -5.3259312 -38.21570858 -6.22799304 -41.4375 -7 C-42.51342407 -7.2616394 -42.51342407 -7.2616394 -43.61108398 -7.52856445 C-78.44691422 -15.33232115 -111.67548435 -2.22636699 -135.5625 23.25 Z " fill="#030F23" transform="translate(741.4375,608)"/>
<path d="M0 0 C1.62636795 2.11212624 3.10617677 4.21092888 4.5625 6.4375 C5.00505127 7.11200195 5.44760254 7.78650391 5.90356445 8.48144531 C17.91576653 27.10667398 32.55468378 54.10374803 31 77 C20.0083433 78.20697296 9.03863582 79.31571262 -2 80 C-2.21914063 78.88625 -2.43828125 77.7725 -2.6640625 76.625 C-6.82487921 56.26374784 -14.14821997 38.47664106 -27 22 C-27 21.34 -27 20.68 -27 20 C-25.33984375 18.4765625 -25.33984375 18.4765625 -22.9375 16.625 C-22.03902344 15.92632813 -21.14054688 15.22765625 -20.21484375 14.5078125 C-19.70937012 14.11625977 -19.20389648 13.72470703 -18.68310547 13.32128906 C-16.79275661 11.83730762 -14.9287999 10.323594 -13.06640625 8.8046875 C-12.39424072 8.2586084 -11.7220752 7.7125293 -11.02954102 7.14990234 C-9.68508593 6.05693621 -8.34308717 4.96094104 -7.00366211 3.86181641 C-2.22452457 0 -2.22452457 0 0 0 Z " fill="#020F25" transform="translate(798,596)"/>
<path d="M0 0 C4.08924686 0.63801507 7.43405441 1.97160182 11.17578125 3.72265625 C12.33271484 4.26083984 13.48964844 4.79902344 14.68164062 5.35351562 C15.89198249 5.92305936 17.10226826 6.49272231 18.3125 7.0625 C19.54208537 7.63656561 20.77190091 8.2101385 22.00195312 8.78320312 C25.00360143 10.18397233 28.00280905 11.58972509 31 13 C30.15323085 17.88852621 28.38475528 21.59880688 26.0625 25.9375 C25.66208496 26.68604248 25.26166992 27.43458496 24.84912109 28.20581055 C18.12372394 40.50006603 9.72256415 50.96426394 0 61 C-0.80824219 61.83660156 -1.61648438 62.67320312 -2.44921875 63.53515625 C-6.77479291 67.9341697 -11.1705625 72.15616199 -16 76 C-16.66 76 -17.32 76 -18 76 C-19.37212301 74.46804728 -20.6715446 72.87078919 -21.9375 71.25 C-25.88816185 66.28437136 -30.03744611 61.61491852 -34.45678711 57.06152344 C-36.88319201 54.49747807 -38.59362373 52.58119087 -39 49 C-38.31035156 48.45472656 -37.62070312 47.90945313 -36.91015625 47.34765625 C-20.11152019 33.86726929 -9.56049878 19.07481158 0 0 Z " fill="#010E24" transform="translate(788,737)"/>
<path d="M0 0 C0.58265625 0.18175781 1.1653125 0.36351562 1.765625 0.55078125 C17.85019672 5.48237164 32.87366657 8.34042526 49.75 8.125 C51.14061846 8.11493717 52.53124408 8.10581723 53.921875 8.09765625 C57.28143819 8.07432595 60.64062175 8.0415923 64 8 C65.42033442 19.07099954 66.2964981 29.83190472 66 41 C41.47979461 45.1765185 11.91521455 41.8272758 -11 32 C-9.22790037 24.64156725 -6.86786263 17.51414235 -4.375 10.375 C-4.06167725 9.47362305 -3.74835449 8.57224609 -3.42553711 7.64355469 C-3.12784424 6.79954102 -2.83015137 5.95552734 -2.5234375 5.0859375 C-2.1200415 3.9419751 -2.1200415 3.9419751 -1.70849609 2.77490234 C-1 1 -1 1 0 0 Z " fill="#021025" transform="translate(632,802)"/>
<path d="M0 0 C4.45021076 1.59995673 6.83868282 5.03023755 9.75 8.5625 C10.81183533 9.82738119 11.87433723 11.0917031 12.9375 12.35546875 C13.45570313 12.97470215 13.97390625 13.59393555 14.5078125 14.23193359 C17.59439646 17.88917198 20.7998887 21.4422292 24 25 C21.29858474 27.72168855 18.57624552 30.41241357 15.80078125 33.05859375 C3.06997219 45.30968063 -5.56462491 58.00771281 -13 74 C-20.37780846 71.74588334 -27.13894512 68.69783441 -34.0625 65.3125 C-35.11888672 64.80138672 -36.17527344 64.29027344 -37.26367188 63.76367188 C-39.84484987 62.51396126 -42.4235047 61.25932878 -45 60 C-34.95515159 36.74430511 -19.83522768 15.96493935 0 0 Z " fill="#010F24" transform="translate(580,572)"/>
<path d="M0 0 C0.21914063 1.05316406 0.43828125 2.10632813 0.6640625 3.19140625 C4.70741783 21.89219769 12.2481092 38.21272142 23 54 C1.09456773 72.67798614 1.09456773 72.67798614 -4 75 C-21.06607567 54.34757509 -29.46615699 29.8673181 -35 4 C-32.07022534 2.35487675 -29.70498004 1.67492724 -26.3671875 1.3671875 C-25.03300781 1.24150391 -25.03300781 1.24150391 -23.671875 1.11328125 C-22.28742187 0.99533203 -22.28742187 0.99533203 -20.875 0.875 C-19.97523438 0.78863281 -19.07546875 0.70226562 -18.1484375 0.61328125 C-12.08453456 0.06439348 -6.08683959 -0.10372488 0 0 Z " fill="#010F24" transform="translate(560,710)"/>
<path d="M0 0 C52.39810771 -1.30094614 52.39810771 -1.30094614 75 10 C72.91111056 17.04617606 70.76031321 24.06934754 68.5 31.0625 C68.20480469 32.01060547 67.90960937 32.95871094 67.60546875 33.93554688 C67.31285156 34.83466797 67.02023437 35.73378906 66.71875 36.66015625 C66.33106445 37.87650757 66.33106445 37.87650757 65.93554688 39.11743164 C65.62681641 39.7386792 65.31808594 40.35992676 65 41 C60.86197866 42.37934045 57.87419374 40.96043924 53.875 39.6875 C52.33133424 39.21546462 50.78706745 38.74539001 49.2421875 38.27734375 C48.50452148 38.05288574 47.76685547 37.82842773 47.00683594 37.59716797 C36.22181707 34.38790323 25.64040983 33.84971349 14.4375 33.9375 C12.78137695 33.94426758 12.78137695 33.94426758 11.09179688 33.95117188 C8.394473 33.9628486 5.69726653 33.97922475 3 34 C1.91860319 30.37157701 1.70442272 26.81625073 1.46484375 23.046875 C1.42186661 22.38665344 1.37888947 21.72643188 1.33460999 21.04620361 C1.19879661 18.94767344 1.06807768 16.84886181 0.9375 14.75 C0.84603967 13.32289506 0.75424648 11.89581141 0.66210938 10.46875 C0.43755038 6.97940498 0.21755765 3.48978934 0 0 Z " fill="#020F24" transform="translate(659,539)"/>
<path d="M0 0 C7.92 0 15.84 0 24 0 C24 0.33 24 0.66 24 1 C19.38 1 14.76 1 10 1 C10 1.66 10 2.32 10 3 C7.03 3 4.06 3 1 3 C0.67 2.01 0.34 1.02 0 0 Z " fill="#132136" transform="translate(665,793)"/>
<path d="M0 0 C0.66 0.66 1.32 1.32 2 2 C1.484375 2.4125 0.96875 2.825 0.4375 3.25 C-1.21104097 4.86436911 -1.21104097 4.86436911 -0.9375 6.875 C0.28537912 9.64685934 2.03144047 11.71393087 4 14 C3.67 14.66 3.34 15.32 3 16 C1.63353852 14.40629329 0.28212834 12.79967018 -1.0625 11.1875 C-1.81660156 10.29417969 -2.57070313 9.40085937 -3.34765625 8.48046875 C-3.89292969 7.66191406 -4.43820312 6.84335937 -5 6 C-3.86695008 2.60085025 -2.87481525 1.94745549 0 0 Z " fill="#0F141F" transform="translate(754,782)"/>
<path d="M0 0 C0.33 0 0.66 0 1 0 C1 6.27 1 12.54 1 19 C0.67 19 0.34 19 0 19 C-0.36103536 17.18885568 -0.71365504 15.37603177 -1.0625 13.5625 C-1.25972656 12.55316406 -1.45695313 11.54382813 -1.66015625 10.50390625 C-1.82837891 9.26447266 -1.82837891 9.26447266 -2 8 C-1.67 7.67 -1.34 7.34 -1 7 C-0.63239269 4.67182036 -0.29758419 2.3381615 0 0 Z " fill="#E4E8EA" transform="translate(770,681)"/>
<path d="M0 0 C1.96035175 0.44962196 3.91824309 0.90998248 5.875 1.375 C7.51082031 1.75785156 7.51082031 1.75785156 9.1796875 2.1484375 C12 3 12 3 14 5 C12.2282281 4.93983797 10.45741321 4.85100672 8.6875 4.75 C7.70136719 4.70359375 6.71523438 4.6571875 5.69921875 4.609375 C3 4 3 4 1.14453125 1.953125 C0.76683594 1.30859375 0.38914062 0.6640625 0 0 Z " fill="#040711" transform="translate(634,803)"/>
<path d="M0 0 C0.99 0.33 1.98 0.66 3 1 C3.66 4.3 4.32 7.6 5 11 C1.71779105 9.35889552 1.25429211 6.30677012 0 3 C0 2.01 0 1.02 0 0 Z " fill="#F3F3F4" transform="translate(476,739)"/>
<path d="M0 0 C-0.33 0.66 -0.66 1.32 -1 2 C-3.64860427 2.59355614 -6.29197322 2.74209269 -9 3 C-8.67 2.01 -8.34 1.02 -8 0 C-5.04215769 -1.22393475 -3.00272755 -0.96516243 0 0 Z " fill="#F0F1F1" transform="translate(663,601)"/>
<path d="M0 0 C0.33 0 0.66 0 1 0 C1.38897161 1.62171239 1.76078298 3.24754925 2.125 4.875 C2.33382812 5.77992188 2.54265625 6.68484375 2.7578125 7.6171875 C2.83773437 8.40351562 2.91765625 9.18984375 3 10 C2.34 10.66 1.68 11.32 1 12 C0.01751476 7.9472484 -0.08159574 4.16138263 0 0 Z " fill="#191F2C" transform="translate(586,710)"/>
</svg>
